<?xml version="1.0" encoding="UTF-8" standalone="no"?>
<!DOCTYPE svg PUBLIC "-//W3C//DTD SVG 1.1//EN" "http://www.w3.org/Graphics/SVG/1.1/DTD/svg11.dtd">
<svg width="100%" height="100%" viewBox="0 0 798 798" version="1.1" xmlns="http://www.w3.org/2000/svg" xmlns:xlink="http://www.w3.org/1999/xlink" xml:space="preserve" xmlns:serif="http://www.serif.com/" style="fill-rule:evenodd;clip-rule:evenodd;stroke-linecap:round;stroke-linejoin:round;stroke-miterlimit:1.5;">
    <g transform="matrix(-0.821886,-0.821886,0.821886,-0.821886,393.607,1235.22)">
        <path d="M63.002,512C63.002,512 257.341,406.516 505.662,406.516C753.983,406.516 948.322,512 948.322,512" style="fill:none;stroke:white;stroke-width:60.22px;"/>
    </g>
    <g transform="matrix(-0.821886,0.821886,-0.821886,-0.821886,1235.22,404.025)">
        <path d="M63.002,512C63.002,512 257.341,406.516 505.662,406.516C753.983,406.516 948.322,512 948.322,512" style="fill:none;stroke:white;stroke-width:60.22px;"/>
    </g>
    <g transform="matrix(-0.821886,-0.821886,-0.821886,0.821886,1235.22,393.607)">
        <path d="M63.002,512C63.002,512 257.341,406.516 505.662,406.516C753.983,406.516 948.322,512 948.322,512" style="fill:none;stroke:white;stroke-width:60.22px;"/>
    </g>
    <g transform="matrix(-0.821886,0.821886,0.821886,0.821886,393.607,-437.586)">
        <path d="M63.002,512C63.002,512 257.341,406.516 505.662,406.516C753.983,406.516 948.322,512 948.322,512" style="fill:none;stroke:white;stroke-width:60.22px;"/>
    </g>
</svg>
