<?xml version="1.0" encoding="UTF-8" standalone="no"?>
<!DOCTYPE svg PUBLIC "-//W3C//DTD SVG 1.1//EN" "http://www.w3.org/Graphics/SVG/1.1/DTD/svg11.dtd">
<svg width="100%" height="100%" viewBox="0 0 1024 1024" version="1.1" xmlns="http://www.w3.org/2000/svg" xmlns:xlink="http://www.w3.org/1999/xlink" xml:space="preserve" xmlns:serif="http://www.serif.com/" style="fill-rule:evenodd;clip-rule:evenodd;stroke-linecap:round;stroke-linejoin:round;stroke-miterlimit:1.5;">
    <path d="M1024,256C1024,114.71 909.29,0 768,0L256,0C114.71,0 0,114.71 0,256L0,768C0,909.29 114.71,1024 256,1024L768,1024C909.29,1024 1024,909.29 1024,768L1024,256Z" style="fill:rgb(72,199,142);"/>
    <g transform="matrix(-0.821886,-0.821886,-0.821886,0.821886,1348.03,507.679)">
        <path d="M63.002,512C63.002,512 257.341,368.341 505.662,368.341C753.983,368.341 948.322,512 948.322,512" style="fill:none;stroke:white;stroke-width:60.22px;"/>
    </g>
    <g transform="matrix(0.821886,-0.821886,-0.821886,-0.821886,515.064,1349.29)">
        <path d="M63.002,512C63.002,512 257.341,368.341 505.662,368.341C753.983,368.341 948.322,512 948.322,512" style="fill:none;stroke:white;stroke-width:60.22px;"/>
    </g>
    <g transform="matrix(-0.821886,-0.821886,0.821886,-0.821886,504.645,1347.51)">
        <path d="M63.002,512C63.002,512 257.341,368.341 505.662,368.341C753.983,368.341 948.322,512 948.322,512" style="fill:none;stroke:white;stroke-width:60.22px;"/>
    </g>
    <g transform="matrix(0.821886,-0.821886,0.821886,0.821886,-324.77,505.902)">
        <path d="M63.002,512C63.002,512 257.341,368.341 505.662,368.341C753.983,368.341 948.322,512 948.322,512" style="fill:none;stroke:white;stroke-width:60.22px;"/>
    </g>
</svg>
