<?xml version="1.0" encoding="UTF-8" standalone="no"?>
<!DOCTYPE svg PUBLIC "-//W3C//DTD SVG 1.1//EN" "http://www.w3.org/Graphics/SVG/1.1/DTD/svg11.dtd">
<svg width="100%" height="100%" viewBox="0 0 1024 1024" version="1.1" xmlns="http://www.w3.org/2000/svg" xmlns:xlink="http://www.w3.org/1999/xlink" xml:space="preserve" xmlns:serif="http://www.serif.com/" style="fill-rule:evenodd;clip-rule:evenodd;stroke-linejoin:round;stroke-miterlimit:2;">
    <g transform="matrix(4.85325,0,0,4.85325,-1982.52,-1972.87)">
        <clipPath id="_clip1">
            <circle cx="514.506" cy="512" r="143.75"/>
        </clipPath>
        <g clip-path="url(#_clip1)">
            <path d="M69.265,512C25.935,458.037 0,389.523 0,315C0,141.147 141.147,-0 315,-0C390.682,-0 460.166,26.748 514.506,71.298C444.019,129.086 399.012,216.829 399.012,315C399.012,348.007 404.1,379.836 413.534,409.743C382.53,399.528 349.406,394 315,394C215.67,394 127.017,440.075 69.265,512ZM514.506,71.298C568.846,26.748 638.33,-0 714.012,-0C887.866,-0 1029.01,141.147 1029.01,315C1029.01,389.523 1003.08,458.037 959.748,512C901.995,440.075 813.342,394 714.012,394C679.607,394 646.482,399.528 615.479,409.743C624.912,379.836 630,348.007 630,315C630,216.829 584.994,129.086 514.506,71.298ZM959.748,512C1003.08,565.963 1029.01,634.477 1029.01,709C1029.01,882.853 887.866,1024 714.012,1024C638.33,1024 568.846,997.252 514.506,952.702C584.994,894.914 630,807.171 630,709C630,675.993 624.912,644.164 615.479,614.257C646.482,624.472 679.607,630 714.012,630C813.342,630 901.995,583.925 959.748,512ZM514.506,952.702C460.166,997.252 390.682,1024 315,1024C141.147,1024 0,882.853 0,709C0,634.477 25.935,565.963 69.265,512C127.017,583.925 215.67,630 315,630C349.406,630 382.53,624.472 413.534,614.257C404.1,644.164 399.012,675.993 399.012,709C399.012,807.171 444.019,894.914 514.506,952.702ZM514.506,465.298C544.143,441.001 578.284,421.999 615.479,409.743C603.614,447.36 584.874,481.938 560.735,512C546.986,494.877 531.485,479.218 514.506,465.298ZM413.534,409.743C450.728,421.999 484.869,441.001 514.506,465.298C497.527,479.218 482.026,494.877 468.277,512C444.139,481.938 425.399,447.36 413.534,409.743ZM413.534,614.257C425.399,576.64 444.139,542.062 468.277,512C482.026,529.123 497.527,544.782 514.506,558.702C484.869,582.999 450.728,602.001 413.534,614.257ZM560.735,512C584.874,542.062 603.614,576.64 615.479,614.257C578.284,602.001 544.143,582.999 514.506,558.702C531.485,544.782 546.986,529.123 560.735,512Z" style="fill:rgb(72,199,142);"/>
        </g>
    </g>
</svg>
