<?xml version="1.0" encoding="UTF-8" standalone="no"?>
<!DOCTYPE svg PUBLIC "-//W3C//DTD SVG 1.1//EN" "http://www.w3.org/Graphics/SVG/1.1/DTD/svg11.dtd">
<svg width="100%" height="100%" viewBox="0 0 115 28" version="1.1" xmlns="http://www.w3.org/2000/svg" xmlns:xlink="http://www.w3.org/1999/xlink" xml:space="preserve" xmlns:serif="http://www.serif.com/" style="fill-rule:evenodd;clip-rule:evenodd;stroke-linecap:round;stroke-linejoin:round;stroke-miterlimit:1.5;">
    <g transform="matrix(1.34203,0,0,1.34203,-458.821,-124.839)">
        <g transform="matrix(24,0,0,24,426.17,112.815)">
        </g>
        <text x="368.954px" y="112.815px" style="font-family:'Jost-LightItalic', 'Jost';font-weight:300;font-style:italic;font-size:24px;fill:white;">forma</text>
    </g>
    <g transform="matrix(-0.0262414,-0.0269357,0.0262414,-0.0269357,14.2194,41.4115)">
        <path d="M63.002,512C63.002,512 257.341,406.516 505.662,406.516C753.983,406.516 948.322,512 948.322,512" style="fill:none;stroke:white;stroke-width:52.5px;"/>
    </g>
    <g transform="matrix(-0.0262414,0.0269357,-0.0262414,-0.0269357,41.0906,14.1707)">
        <path d="M63.002,512C63.002,512 257.341,406.516 505.662,406.516C753.983,406.516 948.322,512 948.322,512" style="fill:none;stroke:white;stroke-width:53.89px;"/>
    </g>
    <g transform="matrix(-0.0262414,-0.0269357,-0.0262414,0.0269357,41.0906,13.8293)">
        <path d="M63.002,512C63.002,512 257.341,406.516 505.662,406.516C753.983,406.516 948.322,512 948.322,512" style="fill:none;stroke:white;stroke-width:53.89px;"/>
    </g>
    <g transform="matrix(-0.0262414,0.0269357,0.0262414,0.0269357,14.2194,-13.4115)">
        <path d="M63.002,512C63.002,512 257.341,406.516 505.662,406.516C753.983,406.516 948.322,512 948.322,512" style="fill:none;stroke:white;stroke-width:52.5px;"/>
    </g>
</svg>
