<?xml version="1.0" standalone="no"?>
<!DOCTYPE svg PUBLIC "-//W3C//DTD SVG 20010904//EN"
 "http://www.w3.org/TR/2001/REC-SVG-20010904/DTD/svg10.dtd">
<svg version="1.0" xmlns="http://www.w3.org/2000/svg"
 width="700.000000pt" height="700.000000pt" viewBox="0 0 700.000000 700.000000"
 preserveAspectRatio="xMidYMid meet">
<metadata>
Created by potrace 1.14, written by Peter Selinger 2001-2017
</metadata>
<g transform="translate(0.000000,700.000000) scale(0.100000,-0.100000)"
fill="#000000" stroke="none">
<path d="M207 6985 c-86 -32 -156 -101 -188 -185 -27 -72 -22 -154 19 -275 34
-100 128 -358 142 -390 5 -11 30 -72 56 -135 150 -371 393 -872 592 -1220 30
-52 64 -113 76 -135 13 -22 54 -92 92 -155 39 -63 77 -126 85 -139 49 -85 367
-553 468 -691 66 -90 117 -167 113 -170 -13 -8 -175 -229 -287 -391 -201 -290
-391 -596 -564 -909 -56 -102 -106 -192 -111 -200 -20 -32 -237 -469 -279
-560 -23 -52 -47 -102 -51 -111 -5 -9 -27 -61 -50 -115 -23 -54 -48 -112 -56
-129 -19 -42 -135 -335 -144 -365 -5 -14 -33 -97 -64 -184 -43 -122 -56 -172
-56 -215 1 -119 64 -220 170 -273 57 -29 74 -33 140 -32 66 1 98 9 270 71 177
64 424 159 475 183 11 5 76 34 145 63 69 30 157 69 195 87 95 44 316 149 336
159 8 5 77 41 152 80 138 72 213 112 277 148 19 11 78 44 130 73 52 30 118 69
147 87 29 18 54 33 57 33 9 0 375 235 535 343 91 63 235 164 318 225 l153 112
97 -73 c228 -170 561 -397 736 -503 27 -16 59 -36 72 -44 367 -234 971 -546
1473 -761 101 -44 187 -79 191 -79 5 0 22 -7 39 -15 36 -19 416 -157 487 -178
116 -34 244 0 320 85 94 103 103 210 35 403 -61 176 -181 488 -191 500 -5 5
-9 15 -9 22 0 7 -11 36 -24 65 -13 29 -49 109 -79 178 -112 252 -277 590 -378
771 -28 52 -66 121 -84 154 -191 352 -620 1010 -823 1262 l-34 43 54 72 c347
465 637 923 915 1443 166 310 374 755 484 1034 28 69 54 135 59 146 8 18 57
154 126 350 38 109 39 198 3 275 -51 106 -142 169 -259 178 -58 4 -81 -1 -205
-42 -77 -26 -174 -60 -215 -76 -216 -84 -380 -149 -420 -167 -25 -12 -81 -36
-125 -56 -143 -62 -176 -78 -440 -208 -292 -144 -418 -210 -423 -221 -2 -5 -8
-8 -13 -8 -16 0 -404 -225 -486 -281 -23 -16 -44 -29 -47 -29 -18 0 -512 -335
-725 -493 l-114 -84 -91 69 c-50 37 -96 72 -102 77 -55 45 -503 346 -641 431
-379 233 -572 340 -933 521 -232 116 -324 159 -495 234 -60 26 -124 54 -141
61 -147 64 -431 172 -612 233 -133 45 -205 51 -275 26z m649 -823 c5 -5 25
-15 44 -22 128 -49 594 -271 819 -392 158 -84 452 -255 621 -361 151 -94 493
-322 524 -349 6 -5 41 -31 78 -57 l67 -49 -56 -48 c-150 -128 -484 -452 -649
-628 -18 -20 -208 -230 -223 -248 -13 -15 -18 -11 -56 41 -181 245 -460 675
-587 901 -14 25 -41 72 -60 105 -99 168 -368 697 -447 880 -24 55 -57 128 -72
163 -16 34 -29 65 -29 67 0 8 15 6 26 -3z m5253 -129 c-149 -341 -321 -681
-529 -1048 -100 -176 -277 -458 -405 -645 -153 -224 -237 -340 -246 -340 -4 0
-56 55 -115 123 -60 67 -206 219 -324 337 -214 214 -260 259 -417 399 l-83 73
45 34 c64 50 291 207 429 298 122 80 522 326 531 326 3 0 23 11 45 25 61 39
390 213 555 295 146 72 553 258 567 259 4 1 -20 -61 -53 -136z m-2550 -1540
c31 -26 76 -66 101 -89 25 -22 77 -69 115 -104 76 -68 449 -441 530 -530 28
-30 82 -91 120 -135 39 -44 72 -82 75 -85 45 -45 46 -42 -31 -131 -132 -155
-243 -273 -429 -459 -212 -212 -260 -256 -423 -398 -133 -116 -111 -111 -192
-40 -16 14 -41 36 -55 48 -134 114 -536 508 -675 659 -86 93 -234 266 -235
272 0 8 59 77 209 244 176 195 464 479 676 666 28 24 52 46 55 49 14 15 94 80
98 80 3 0 30 -21 61 -47z m-1339 -1653 c161 -179 523 -536 708 -699 40 -35 71
-67 70 -72 -11 -29 -754 -529 -788 -529 -4 0 -10 -4 -12 -8 -2 -6 -131 -83
-268 -160 -19 -10 -51 -29 -70 -40 -134 -79 -782 -402 -806 -402 -2 0 -32 -13
-66 -29 -101 -47 -158 -70 -158 -65 0 2 9 23 19 47 11 23 49 110 86 192 70
157 250 523 311 635 20 36 53 97 75 137 21 39 52 94 69 123 16 28 30 52 30 54
0 5 200 332 265 434 66 103 276 411 309 454 12 15 32 43 46 62 l25 36 35 -38
c19 -21 73 -80 120 -132z m2803 42 c433 -606 827 -1304 1111 -1969 l35 -82
-72 31 c-217 91 -635 293 -827 399 -41 22 -100 54 -130 70 -30 17 -62 34 -70
39 -36 23 -171 100 -175 100 -2 0 -31 18 -64 40 -33 22 -62 40 -65 40 -15 0
-577 368 -596 391 -3 3 -34 25 -69 49 -98 65 -115 82 -98 95 18 13 157 138
251 225 194 180 491 488 661 686 6 7 13 10 17 8 4 -3 45 -57 91 -122z"/>
</g>
</svg>
